<?xml version="1.0" standalone="no"?>
<!DOCTYPE svg PUBLIC "-//W3C//DTD SVG 20010904//EN"
 "http://www.w3.org/TR/2001/REC-SVG-20010904/DTD/svg10.dtd">
<svg version="1.0" xmlns="http://www.w3.org/2000/svg"
 width="468.000000pt" height="468.000000pt" viewBox="0 0 468.000000 468.000000"
 preserveAspectRatio="xMidYMid meet">
<metadata>
Created by potrace 1.14, written by Peter Selinger 2001-2017
</metadata>
<g transform="translate(0.000000,468.000000) scale(0.100000,-0.100000)"
fill="#000000" stroke="none">
<path d="M2819 4056 c-2 -2 -49 -7 -104 -11 -55 -3 -111 -8 -125 -10 -14 -2
-52 -6 -85 -10 -86 -10 -97 -11 -130 -18 -16 -3 -46 -9 -65 -11 -59 -9 -297
-60 -333 -72 -12 -4 -29 -8 -37 -9 -42 -4 -306 -89 -395 -127 -245 -104 -385
-199 -421 -285 -23 -54 -18 -79 26 -123 22 -22 40 -47 40 -56 0 -11 6 -13 20
-9 10 3 49 -3 86 -15 78 -24 183 -49 234 -55 19 -3 46 -7 60 -10 13 -3 52 -7
87 -10 34 -3 70 -7 80 -9 17 -4 88 -13 163 -21 19 -2 64 -7 100 -10 36 -3 83
-8 105 -10 22 -2 81 -7 130 -11 50 -4 104 -8 120 -9 66 -6 183 -17 230 -20
140 -12 173 -15 205 -20 19 -3 60 -7 91 -10 31 -2 71 -7 88 -10 17 -3 62 -7
99 -9 37 -2 75 -7 85 -11 9 -4 30 -5 47 -3 16 3 26 0 23 -5 -3 -6 9 -8 30 -5
20 2 34 1 32 -3 -6 -8 103 -21 116 -14 5 4 9 2 9 -3 0 -5 21 -13 47 -17 74
-11 238 -61 308 -93 65 -31 103 -76 91 -108 -3 -8 -2 -14 3 -14 4 0 8 -14 9
-31 1 -25 -13 -44 -81 -112 -70 -71 -166 -147 -183 -147 -3 0 -20 -10 -37 -22
-36 -25 -41 -28 -242 -132 -126 -66 -313 -151 -350 -160 -23 -6 -154 -68 -378
-178 -130 -65 -239 -118 -242 -118 -2 0 -39 -16 -82 -36 -43 -20 -106 -49
-141 -65 -35 -16 -67 -29 -72 -29 -6 0 -10 -4 -10 -10 0 -5 -4 -10 -10 -10 -8
0 -60 -23 -237 -107 -18 -8 -37 -11 -44 -7 -7 4 -9 3 -5 -4 3 -6 -2 -16 -13
-21 -26 -14 -44 -14 -35 1 4 7 3 8 -5 4 -6 -4 -9 -11 -7 -15 5 -8 -117 -71
-137 -71 -8 0 -7 4 3 11 13 9 13 10 0 6 -8 -2 -15 -9 -15 -16 0 -6 -24 -23
-54 -37 -43 -19 -56 -22 -64 -12 -6 10 -7 9 -4 -4 6 -17 -18 -33 -34 -22 -10
6 -89 -34 -101 -51 -4 -5 -8 -7 -8 -2 0 10 -60 -21 -60 -32 0 -4 -44 -30 -97
-57 -54 -26 -101 -53 -105 -59 -4 -5 -8 -6 -8 -1 0 5 -6 4 -13 -2 -6 -5 -41
-25 -77 -44 -36 -20 -132 -73 -215 -119 -208 -115 -454 -239 -476 -239 -11 0
-19 -4 -19 -8 0 -5 -18 -18 -40 -31 -22 -12 -40 -25 -40 -29 0 -6 -40 -52
-123 -139 -29 -31 -29 -32 -6 -26 25 6 96 53 136 88 13 12 38 29 56 39 l32 17
-25 -20 c-45 -37 -59 -53 -57 -65 1 -6 -5 -10 -13 -8 -8 2 -12 0 -7 -4 4 -4 0
-18 -8 -30 -14 -22 -14 -23 2 -17 10 4 53 31 96 61 42 29 74 47 71 38 -3 -9
-10 -16 -15 -16 -5 0 -9 -9 -9 -20 0 -11 -5 -20 -11 -20 -5 0 -7 5 -3 12 5 7
3 8 -5 4 -7 -5 -10 -11 -7 -14 4 -3 -1 -16 -9 -28 -15 -23 -15 -23 12 -13 28
10 132 84 144 102 4 5 9 5 13 -1 4 -6 -2 -16 -11 -22 -13 -8 -14 -13 -5 -16 6
-3 9 -11 5 -17 -4 -6 7 -1 24 11 17 12 37 22 45 22 7 0 25 8 38 17 62 44 58
16 -8 -55 -59 -62 -23 -54 73 16 89 65 132 91 120 72 -4 -6 -18 -15 -32 -21
-13 -5 -21 -13 -18 -19 3 -5 -1 -10 -10 -10 -9 0 -15 -5 -13 -12 7 -19 24 -20
41 -3 9 8 23 15 32 15 9 0 29 9 45 20 15 11 30 17 34 13 3 -3 6 -1 6 6 0 7 4
10 8 7 5 -3 24 8 43 25 21 19 26 26 12 19 -52 -25 -31 -6 41 36 43 25 80 44
82 41 6 -5 -72 -57 -86 -57 -5 0 -10 -4 -10 -10 0 -14 2 -13 58 15 28 14 55
25 61 25 6 0 19 4 29 10 9 5 46 19 82 31 36 11 73 28 82 36 9 8 22 12 27 8 6
-3 11 -1 11 4 0 6 3 10 8 9 12 -3 66 28 86 51 10 11 35 26 55 32 20 6 47 19
61 29 40 27 91 50 112 50 11 0 32 8 46 18 26 18 56 32 77 37 6 2 37 15 70 30
33 16 71 30 85 32 13 2 63 24 110 49 47 24 90 44 94 44 4 0 20 8 34 18 15 10
56 31 92 46 36 15 83 36 105 46 33 14 72 29 95 35 3 1 22 9 42 18 21 10 44 17
52 17 7 0 17 7 20 16 3 8 10 13 15 9 5 -3 12 -1 15 4 8 13 -19 8 -36 -6 -7 -7
-19 -8 -26 -4 -12 7 73 51 113 58 51 8 65 14 59 25 -4 6 -3 8 4 4 6 -3 32 3
59 15 26 12 73 33 103 47 89 39 120 56 120 66 0 5 3 6 7 3 4 -4 -9 -23 -27
-42 -26 -27 -30 -35 -17 -35 19 0 118 48 177 85 65 41 170 95 185 95 8 0 15 5
15 10 0 6 3 9 8 8 15 -4 58 15 72 32 13 15 211 107 244 113 6 1 17 8 24 15 7
6 20 12 28 12 8 0 14 5 14 10 0 6 3 9 8 8 16 -4 82 37 78 48 -3 9 2 9 23 1 24
-9 34 -6 72 20 24 17 71 45 104 62 33 18 71 44 84 59 13 15 20 21 17 15 -9
-17 -1 -16 35 2 17 9 27 21 23 27 -5 7 -3 8 5 4 7 -5 20 -2 29 6 9 8 36 22 59
32 23 10 41 21 40 25 -2 10 27 51 38 51 15 1 55 37 55 50 0 7 10 10 28 6 15
-3 34 -2 42 4 8 5 10 10 5 10 -6 0 -11 9 -12 20 -1 11 3 20 9 20 5 0 23 10 40
21 22 16 32 19 41 10 8 -8 7 -11 -6 -11 -9 0 -17 -4 -17 -10 0 -19 15 -9 80
50 36 33 67 60 70 60 3 0 14 15 25 33 10 17 25 38 32 45 7 7 13 22 13 32 0 10
6 20 14 23 17 7 27 70 12 79 -6 4 -11 11 -12 15 0 4 -6 20 -12 35 -21 50 -229
178 -290 178 -16 0 -32 3 -36 7 -3 4 -12 8 -19 10 -7 1 -61 18 -122 37 -60 19
-123 37 -140 40 -16 2 -41 7 -55 10 -14 3 -63 10 -110 16 -47 5 -96 12 -110
14 -46 8 -114 15 -195 21 -136 10 -199 16 -215 20 -8 2 -40 7 -70 10 -30 3
-66 7 -80 9 -113 20 -200 28 -308 31 -70 2 -138 6 -151 9 -13 3 -47 8 -75 11
-28 2 -69 7 -91 9 -128 14 -187 19 -250 21 -62 2 -116 8 -180 22 -11 2 -40 6
-65 9 -124 15 -220 56 -220 93 0 10 29 48 65 85 36 37 65 71 65 76 0 5 63 29
139 54 76 24 172 58 212 75 62 25 164 58 204 67 6 1 48 12 95 24 46 12 94 22
105 22 11 0 36 4 55 9 19 4 59 10 88 13 29 3 56 7 60 10 4 2 41 7 82 11 41 3
93 8 115 11 119 15 395 2 449 -21 11 -5 21 -3 26 4 5 10 9 9 13 -2 7 -17 57
-29 57 -13 0 7 3 8 8 1 4 -6 27 -17 52 -23 86 -24 353 -163 391 -204 21 -23
44 -38 58 -38 17 0 21 3 14 13 -6 6 -15 27 -21 45 -16 46 4 42 56 -12 44 -46
90 -69 73 -38 -5 10 -9 19 -9 22 1 3 -2 15 -6 28 -5 13 -6 26 -3 28 7 8 47
-19 47 -31 0 -10 82 -67 88 -60 2 2 -6 32 -18 67 -18 51 -30 69 -63 93 -58 42
-30 42 41 0 33 -19 65 -35 71 -35 23 0 88 -42 125 -80 21 -22 47 -40 57 -40
17 0 17 2 3 35 -8 19 -15 38 -15 42 -7 47 -93 125 -176 160 -138 59 -301 114
-374 128 -14 3 -61 12 -105 20 -43 9 -99 18 -124 21 -25 2 -63 7 -85 10 -47 7
-950 16 -956 10z m-724 -366 c-3 -5 -12 -10 -18 -10 -7 0 -6 4 3 10 19 12 23
12 15 0z m-38 -16 c-3 -3 -12 -4 -19 -1 -8 3 -5 6 6 6 11 1 17 -2 13 -5z
m-817 -77 c0 -2 -12 -14 -27 -28 l-28 -24 24 28 c23 25 31 32 31 24z m700 -21
c0 -3 -4 -8 -10 -11 -5 -3 -10 -1 -10 4 0 6 5 11 10 11 6 0 10 -2 10 -4z m-45
-36 c-10 -11 -21 -17 -24 -14 -3 3 3 12 13 20 28 20 32 17 11 -6z m2468 -493
c-4 -6 4 -7 19 -4 18 5 28 2 32 -8 3 -8 1 -15 -4 -15 -6 0 -10 4 -10 9 0 5 -8
7 -18 4 -10 -2 -24 2 -30 10 -9 11 -9 14 3 14 8 0 11 -5 8 -10z m82 -47 c3 -6
-1 -7 -9 -4 -18 7 -21 14 -7 14 6 0 13 -4 16 -10z m-618 -67 c-6 -5 -97 41
-97 49 0 4 22 -4 50 -19 27 -15 48 -28 47 -30z m747 8 c-2 -2 4 -10 14 -18 9
-8 2 -6 -16 4 -18 10 -41 26 -50 37 -17 18 -16 18 19 0 21 -11 35 -21 33 -23z
m-57 -61 c-1 -11 -5 -20 -9 -20 -4 0 -7 11 -6 24 1 14 6 23 9 20 4 -2 7 -13 6
-24z m118 -20 c3 -5 2 -10 -4 -10 -5 0 -13 5 -16 10 -3 6 -2 10 4 10 5 0 13
-4 16 -10z m-34 -38 c-5 -2 -7 -13 -4 -25 4 -18 2 -19 -6 -6 -5 8 -7 26 -4 38
4 17 8 19 14 9 5 -7 4 -14 0 -16z m-644 -14 c-3 -8 -6 -5 -6 6 -1 11 2 17 5
13 3 -3 4 -12 1 -19z m540 -82 c0 -8 -6 -12 -14 -9 -7 3 -10 9 -7 14 8 14 21
11 21 -5z m78 -56 c-3 -5 -12 -10 -18 -10 -7 0 -6 4 3 10 19 12 23 12 15 0z
m-107 -24 c-7 -8 -15 -12 -17 -11 -5 6 10 25 20 25 5 0 4 -6 -3 -14z m-55 -23
c3 -5 -24 -27 -59 -49 -69 -45 -83 -46 -31 -2 66 57 81 65 90 51z m83 -35 c4
-7 3 -8 -4 -4 -7 4 -12 0 -12 -10 0 -10 -3 -15 -6 -11 -7 6 2 37 10 37 3 0 8
-5 12 -12z m-36 -24 c0 -8 -5 -12 -10 -9 -6 4 -8 11 -5 16 9 14 15 11 15 -7z
m-150 -75 c-54 -50 -122 -99 -137 -99 -10 0 70 70 80 70 5 0 5 5 1 12 -4 7 -3
8 4 4 7 -4 22 4 34 17 21 22 56 46 68 47 3 0 -20 -23 -50 -51z m34 -14 c-4 -8
-10 -15 -15 -15 -4 0 -6 7 -3 15 4 8 10 15 15 15 4 0 6 -7 3 -15z m-199 -84
c-3 -6 -14 -11 -23 -11 -13 0 -13 2 4 14 21 15 30 14 19 -3z m4 -44 c8 -10 7
-14 -4 -14 -8 0 -15 6 -15 14 0 7 2 13 4 13 2 0 9 -6 15 -13z m-49 -1 c0 -2
-7 -7 -16 -10 -8 -3 -12 -2 -9 4 6 10 25 14 25 6z m-200 -141 c0 -2 -10 -10
-22 -16 -21 -11 -22 -11 -9 4 13 16 31 23 31 12z m-115 -70 c-21 -18 -43 -31
-48 -28 -5 3 6 14 25 25 18 11 35 24 36 29 2 5 9 9 15 9 7 -1 -6 -16 -28 -35z
m-1065 -95 c-8 -5 -19 -10 -25 -10 -5 0 -3 5 5 10 8 5 20 10 25 10 6 0 3 -5
-5 -10z m-40 -16 c0 -6 -65 -34 -77 -33 -4 0 10 9 32 19 48 22 45 21 45 14z
m630 -79 c0 -2 -22 -16 -50 -30 -27 -14 -50 -23 -50 -20 0 2 21 16 48 29 53
28 52 28 52 21z m-1000 -105 c-8 -5 -19 -10 -25 -10 -5 0 -3 5 5 10 8 5 20 10
25 10 6 0 3 -5 -5 -10z m-45 -20 c-3 -5 -14 -10 -23 -9 -14 0 -13 2 3 9 27 11
27 11 20 0z m-50 -20 c-3 -5 -12 -10 -18 -10 -7 0 -6 4 3 10 19 12 23 12 15 0z
m-59 -29 c-9 -14 -177 -92 -190 -88 -10 4 52 36 80 42 6 2 33 15 60 29 54 29
58 30 50 17z m854 -21 c-8 -6 -24 -15 -35 -21 -16 -8 -15 -6 4 10 13 12 28 21
35 21 6 0 4 -5 -4 -10z m-74 -46 c-11 -8 -27 -14 -35 -13 -11 0 -9 3 5 9 12 5
25 14 29 20 4 6 10 8 13 5 4 -4 -2 -13 -12 -21z m-987 -28 c-10 -9 -69 -36
-69 -32 0 7 52 35 64 36 5 0 7 -2 5 -4z m447 -171 c-11 -8 -25 -15 -30 -15 -6
1 0 7 14 15 32 19 40 18 16 0z m-836 -29 c0 -3 -4 -8 -10 -11 -5 -3 -10 -1
-10 4 0 6 5 11 10 11 6 0 10 -2 10 -4z m518 -50 c-7 -8 -17 -12 -22 -9 -4 3
-2 9 5 14 22 13 31 11 17 -5z m-785 -71 c-18 -12 -66 -35 -83 -40 -3 0 -16 -7
-30 -15 -14 -8 -27 -15 -30 -16 -18 -4 -46 -19 -52 -28 -5 -7 -8 -5 -8 6 0 9
12 21 28 27 15 6 56 26 92 46 67 36 127 51 83 20z m-223 -104 c-14 -27 -25
-32 -45 -24 -15 5 -12 9 16 24 19 9 35 17 37 18 1 1 -2 -8 -8 -18z m-130 -66
c0 -8 -4 -15 -10 -15 -5 0 -7 7 -4 15 4 8 8 15 10 15 2 0 4 -7 4 -15z m170
-243 c0 -5 -6 -9 -12 -9 -7 0 -22 -4 -33 -7 -13 -5 -12 -2 5 8 29 17 40 20 40
8z m-250 -12 c-8 -5 -19 -10 -25 -10 -5 0 -3 5 5 10 8 5 20 10 25 10 6 0 3 -5
-5 -10z m-400 -4 c0 -2 -7 -7 -16 -10 -8 -3 -12 -2 -9 4 6 10 25 14 25 6z
m-41 -20 c-2 -2 -15 -9 -29 -15 -24 -11 -24 -11 -6 3 16 13 49 24 35 12z m597
-11 c-21 -16 -32 -13 -21 4 3 6 14 11 23 11 15 -1 15 -2 -2 -15z m-226 1 c0
-2 -7 -7 -16 -10 -8 -3 -12 -2 -9 4 6 10 25 14 25 6z m-55 -26 c-3 -5 -11 -10
-16 -10 -6 0 -7 5 -4 10 3 6 11 10 16 10 6 0 7 -4 4 -10z m-440 -30 c-9 -14
-65 -42 -65 -33 0 9 50 42 63 43 5 0 5 -5 2 -10z m380 0 c-3 -6 -25 -19 -48
-30 -48 -23 -37 -8 14 19 43 23 41 23 34 11z m45 -20 c-33 -26 -52 -25 -21 0
13 11 28 20 35 20 6 0 0 -9 -14 -20z"/>
<path d="M4377 2495 c-4 -8 -2 -17 3 -20 6 -4 10 1 10 10 0 9 5 13 10 10 6 -3
10 -1 10 4 0 16 -27 13 -33 -4z"/>
<path d="M3428 1933 c7 -3 16 -2 19 1 4 3 -2 6 -13 5 -11 0 -14 -3 -6 -6z"/>
<path d="M3348 1908 c-16 -5 -28 -14 -28 -19 0 -8 54 14 69 27 7 7 -13 3 -41
-8z"/>
<path d="M1625 1580 c-3 -6 1 -7 9 -4 18 7 21 14 7 14 -6 0 -13 -4 -16 -10z"/>
<path d="M1526 1534 c-11 -8 -16 -14 -10 -14 13 0 39 18 34 24 -3 2 -14 -2
-24 -10z"/>
<path d="M1523 1078 c-13 -6 -23 -15 -23 -19 0 -4 14 -1 30 7 29 15 39 25 23
23 -5 0 -18 -5 -30 -11z"/>
<path d="M1370 1010 c-9 -6 -10 -10 -3 -10 6 0 15 5 18 10 8 12 4 12 -15 0z"/>
<path d="M598 663 c7 -3 16 -2 19 1 4 3 -2 6 -13 5 -11 0 -14 -3 -6 -6z"/>
</g>
</svg>
